<svg width="140" height="100" viewBox="0 0 140 100" fill="none" xmlns="http://www.w3.org/2000/svg">
<path d="M106.593 22C95.8219 22 85.9387 27.9225 80.8334 37.0764C77.9845 34.4866 74.197 32.8899 70.0269 32.8899C65.8382 32.8899 62.0323 34.5015 59.18 37.1162C54.0831 27.9407 44.1848 22.0017 33.4034 22.0017C21.4385 22.0017 10.7041 29.2489 6.22338 39.9813L0 39.9829V48.6776L7.21556 48.676C7.14505 49.4503 7.10308 50.2312 7.10308 51.0237C7.10308 65.3491 18.9018 77 33.4051 77C47.9101 77 59.7088 65.3491 59.7088 51.0237C59.7088 50.2312 59.6686 49.4503 59.598 48.6776H62.6904H62.8516C62.8516 44.7663 66.0716 41.5862 70.0302 41.5862C73.9889 41.5862 77.2088 44.7663 77.2088 48.6776H77.3079H80.4036C80.3348 49.4503 80.2928 50.2328 80.2928 51.0237C80.2928 65.3491 92.0933 77 106.597 77C121.1 77 132.9 65.3491 132.9 51.0237C132.9 50.2312 132.858 49.4503 132.786 48.676L140 48.6776V39.9829L133.777 39.9813C129.292 29.2472 118.558 22 106.593 22ZM57.0664 51.0204C57.0664 63.9049 46.4529 74.387 33.4034 74.387C20.3573 74.387 9.74218 63.9049 9.74218 51.0204C9.74218 50.2262 9.78247 49.4453 9.86138 48.6726H12.6851L13.5884 45.5042C16.0713 36.7829 24.2203 30.693 33.4034 30.693C41.9285 30.693 49.6729 35.9854 52.6746 43.8644C53.2655 45.4163 53.6416 47.0262 53.833 48.6726H54.0445H56.9472C57.0244 49.4453 57.0664 50.2279 57.0664 51.0204ZM130.254 51.0204C130.254 63.9049 119.641 74.387 106.593 74.387C93.5454 74.387 82.9286 63.9049 82.9286 51.0204C82.9286 50.2262 82.9705 49.4453 83.0494 48.6743H86.0109H86.162C86.355 47.0279 86.7294 45.4163 87.322 43.866C90.3221 35.9871 98.0631 30.6947 106.593 30.6947C115.775 30.6947 123.922 36.7846 126.405 45.5058L127.31 48.6743H130.137C130.211 49.4453 130.254 50.2279 130.254 51.0204Z" fill="#d24816"/>
</svg>
