<svg width="91" height="24" viewBox="0 0 91 24" fill="none" xmlns="http://www.w3.org/2000/svg">
<path d="M42.5842 0.00598145C38.851 0.00598145 35.8154 3.0556 35.8154 6.80284V12.0164H38.4734V6.80284C38.4734 4.34418 40.1357 2.67496 42.5857 2.67496C45.0356 2.67496 46.698 4.34418 46.698 6.80284V12.0164H49.3559V6.80284C49.3544 3.0556 46.3174 0.00598145 42.5842 0.00598145Z" fill="#212529"/>
<path d="M46.6965 17.1632C46.6965 19.6233 45.0342 21.3162 42.5842 21.3162C40.1342 21.3162 38.4719 19.6603 38.4719 17.2017V13.8336H35.814V17.2017C35.814 20.9504 38.851 24 42.5827 24C46.316 24 49.353 20.9504 49.353 17.2017V13.8425H46.695V17.1632H46.6965Z" fill="#212529"/>
<path d="M63.4211 0.00598145C59.6879 0.00598145 56.6523 3.0556 56.6523 6.80284V12.0164H59.3103V6.80284C59.3103 4.34418 60.9726 2.67496 63.4226 2.67496C65.8726 2.67496 67.5349 4.34418 67.5349 6.80284V9.34296H61.2322V12.0164H67.5334H69.2592H70.1914V6.80284C70.1914 3.0556 67.1543 0.00598145 63.4211 0.00598145Z" fill="#212529"/>
<path d="M67.5329 17.1632C67.5329 19.6233 65.8706 21.3162 63.4206 21.3162C60.9707 21.3162 59.3083 19.6603 59.3083 17.2017V13.8336H56.6504V17.2017C56.6504 20.9504 59.6874 24 63.4192 24C67.1524 24 70.1894 20.9504 70.1894 17.2017V15.6435L67.5314 15.645V17.1632H67.5329Z" fill="#212529"/>
<path d="M0 12.0178H2.64172V2.6749H10.4046V0H0V12.0178Z" fill="#212529"/>
<path d="M2.64172 13.8322H0V23.9986H2.64172V13.8322Z" fill="#212529"/>
<path d="M10.4044 9.34583H4.63721V12.0192H10.4044V9.34583Z" fill="#212529"/>
<path d="M22.0442 0.00598145H19.3862V12.0193H22.0442V0.00598145Z" fill="#212529"/>
<path d="M22.0457 13.8322H19.3862V23.9986H29.7909V21.3296H22.0457V13.8322Z" fill="#212529"/>
<path d="M83.3818 18.8874L82.0676 13.8353H79.4097L82.0676 23.9987H84.6902L87.3584 13.8308H84.702L83.3818 18.8874Z" fill="#212529"/>
<path d="M88.3567 0.00598145L85.1943 12.0564H87.8508L90.9999 0.00598145H88.3567Z" fill="#212529"/>
<path d="M78.4036 0.00885317L75.7427 0.00292969L78.9065 12.0607H81.566L78.4036 0.00885317Z" fill="#212529"/>
</svg>
