<svg width="100" height="100" viewBox="0 0 100 100" fill="none" xmlns="http://www.w3.org/2000/svg">
<path d="M91.167 54.515C76.631 39.978 61.807 33.047 47.118 33.903C24.88 35.201 9.951 53.782 9.802 53.971L0 46.225C0.747 45.28 18.616 23.051 46.39 21.43C64.8 20.363 82.834 28.513 100 45.681L91.167 54.515Z" fill="#C3512A"/>
<path d="M50.2418 78.663C38.9348 78.663 29.7358 69.464 29.7358 58.157C29.7358 46.85 38.9348 37.651 50.2418 37.651C61.5488 37.651 70.7458 46.85 70.7458 58.157C70.7458 69.464 61.5488 78.663 50.2418 78.663ZM50.2418 50.145C45.8238 50.145 42.2298 53.739 42.2298 58.158C42.2298 62.576 45.8238 66.17 50.2418 66.17C54.6588 66.17 58.2528 62.576 58.2528 58.158C58.2528 53.738 54.6588 50.145 50.2418 50.145Z" fill="#C3512A"/>
</svg>
