<svg width="100" height="100" viewBox="0 0 100 100" fill="none" xmlns="http://www.w3.org/2000/svg">
<path d="M93.8002 17.9169L71.8002 3.81693C70.2002 2.81693 68.1002 2.71693 66.4002 3.61693C64.7002 4.51693 63.7002 6.31693 63.7002 8.21693V16.5169H34.1002C18.4002 16.5169 5.7002 29.3169 5.7002 44.9169V51.5169C5.7002 54.7169 8.30019 57.3169 11.5002 57.3169C14.7002 57.3169 17.3002 54.7169 17.3002 51.5169V44.9169C17.3002 35.6169 24.9002 28.0169 34.2002 28.0169H63.8002V36.5169C63.8002 38.4169 64.8002 40.2169 66.5002 41.1169C67.3002 41.5169 68.2002 41.7169 69.0002 41.7169C70.0002 41.7169 71.0002 41.4169 71.8002 40.9169L93.8002 26.8169C95.3002 25.8169 96.2002 24.2169 96.2002 22.4169C96.2002 20.6169 95.3002 18.9169 93.8002 17.9169Z" fill="#C3512A"/>
<path d="M88.8 43.6169C85.6 43.6169 83 46.2169 83 49.4169V56.0169C83 65.3169 75.4 72.9169 66.1 72.9169H36.5V64.5169C36.5 62.6169 35.5 60.8169 33.8 59.9169C32.1 59.0169 30.1 59.0169 28.4 60.1169L6.4 74.2169C4.9 75.2169 4 76.8169 4 78.6169C4 80.4169 4.9 82.1169 6.4 83.0169L28.4 97.1169C29.3 97.7169 30.2 97.9169 31.2 97.9169C32.1 97.9169 32.9 97.7169 33.7 97.3169C35.4 96.4169 36.4 94.6169 36.4 92.7169V84.4169H66.1C81.8 84.4169 94.5 71.6169 94.5 56.0169V49.4169C94.5 46.2169 91.9 43.6169 88.8 43.6169Z" fill="#C3512A"/>
</svg>
