<svg width="60" height="30" viewBox="0 0 60 30" fill="none" xmlns="http://www.w3.org/2000/svg">
<path fill-rule="evenodd" clip-rule="evenodd" d="M0 9H3.75079L6.75396 5H22.2461L25.2316 8.9765C25.7267 8.68263 26.3349 8.4725 26.955 8.32423C27.7518 8.1337 28.6665 8.02249 29.6013 8.00024C31.3284 7.95913 33.2909 8.21896 34.7542 8.9955L37.754 5H53.2461L56.2493 9H60V11H57V13.5C57 19.8513 51.8513 25 45.5 25C39.1488 25 34 19.8513 34 13.5L34 10.8334L33.9856 10.8574C32.9704 10.2484 31.3171 9.95996 29.6488 9.99967C28.8336 10.0191 28.0608 10.1162 27.4201 10.2694C26.7562 10.4282 26.3239 10.626 26.114 10.7893L26 10.6428V13.5C26 19.8513 20.8513 25 14.5 25C8.14877 25 3.00004 19.8513 3.00004 13.5L3.00001 11H0V9ZM7.75334 6.99998L5.00001 10.6672L5.00004 13.5C5.00004 18.7467 9.25333 23 14.5 23C19.7467 23 24 18.7467 24 13.5V10.6672L21.2467 6.99998H7.75334ZM36 10.6672L38.7533 6.99998H52.2467L55 10.6672V13.5C55 18.7467 50.7467 23 45.5 23C40.2533 23 36 18.7467 36 13.5L36 10.6672Z" fill="#212529"/>
</svg>
