<svg width="60" height="30" viewBox="0 0 60 30" fill="none" xmlns="http://www.w3.org/2000/svg">
<path fill-rule="evenodd" clip-rule="evenodd" d="M4.77902 9.63858C4.45706 10.1728 4.24412 11.0205 4.20244 12.1389C4.1594 13.2937 4.30296 14.6286 4.60119 15.9706C4.89906 17.3111 5.34424 18.6271 5.88462 19.7445C6.40476 20.8199 6.98306 21.6489 7.55099 22.1552C8.14745 22.4246 9.11649 22.6422 10.3741 22.7795C11.6791 22.922 13.1968 22.9685 14.73 22.9378C17.8327 22.8757 20.8307 22.502 22.182 22.0523C22.1871 22.0499 22.2264 22.0314 22.2971 21.9693C22.3809 21.8958 22.4862 21.7815 22.6086 21.6151C22.8552 21.28 23.1218 20.8024 23.3927 20.2007C23.9326 19.0014 24.4349 17.4326 24.817 15.8345C25.1994 14.2356 25.4497 12.657 25.506 11.4432C25.5343 10.8309 25.5109 10.3574 25.4504 10.0365C25.4281 9.91818 25.4055 9.84474 25.3901 9.803C22.6117 8.22947 18.1372 7.50184 13.8893 7.56257C11.7581 7.59304 9.73963 7.82162 8.09157 8.21508C6.47161 8.60183 5.35102 9.11533 4.77902 9.63858ZM13.8607 5.56278C18.3082 5.4992 23.2735 6.25191 26.5039 8.13641C26.7104 8.25688 26.8708 8.41552 26.9962 8.59058C27.2024 8.49437 27.4173 8.41285 27.6341 8.34404C28.2635 8.14428 28.986 8.02768 29.7243 8.00435C30.7617 7.97157 31.9066 8.12125 32.9038 8.55287C32.9264 8.51663 32.9494 8.48082 32.973 8.44546L33.028 8.36307L33.098 8.29306C34.0511 7.33995 35.6543 6.69421 37.4322 6.26975C39.2529 5.83508 41.4219 5.59486 43.6657 5.56278C48.1133 5.4992 53.0785 6.25191 56.3089 8.13641C56.9292 8.49823 57.1338 9.20428 57.2208 9.66589C57.2411 9.77311 57.258 9.88467 57.2718 10H60V12H57.2803C57.1829 13.2874 56.9244 14.806 56.5672 16.2996C56.1659 17.9778 55.6281 19.6742 55.0214 21.0217C54.719 21.6934 54.3857 22.3097 54.0245 22.8005C53.6843 23.2628 53.2227 23.7487 52.6212 23.9491C50.9715 24.4988 47.721 24.8745 44.5751 24.9374C42.9833 24.9692 41.3759 24.922 39.9622 24.7677C38.5769 24.6165 37.2735 24.3525 36.3579 23.8949L36.254 23.8429L36.1648 23.7686C35.2612 23.0154 34.498 21.8741 33.8892 20.6152C33.2733 19.3418 32.781 17.8766 32.4539 16.4045C32.1271 14.934 31.9582 13.4252 32.0089 12.0644C32.0293 11.5168 32.0859 10.9738 32.1903 10.4567C31.4771 10.1929 30.622 10.0735 29.7619 10.1007C29.1179 10.121 28.5076 10.2228 28.0015 10.3835C27.8149 10.4427 27.6515 10.5071 27.5108 10.5733C27.5228 10.8801 27.5192 11.2038 27.5038 11.5358C27.4399 12.9133 27.1633 14.6222 26.7622 16.2996C26.3609 17.9778 25.823 19.6742 25.2164 21.0217C24.914 21.6934 24.5807 22.3097 24.2195 22.8005C23.8793 23.2628 23.4177 23.7487 22.8161 23.9491C21.1665 24.4988 17.9159 24.8745 14.77 24.9374C13.1782 24.9692 11.5709 24.922 10.1571 24.7677C8.77189 24.6165 7.46844 24.3525 6.55289 23.8949L6.44899 23.8429L6.35976 23.7686C5.45613 23.0154 4.69296 21.8741 4.08414 20.6152C3.46826 19.3418 2.97594 17.8766 2.64882 16.4045C2.32205 14.934 2.15311 13.4252 2.20383 12.0644L2.20639 12H0V10H2.49202C2.64496 9.42923 2.86459 8.90049 3.16797 8.44546L3.2229 8.36307L3.29291 8.29306C4.24607 7.33995 5.84924 6.69421 7.62714 6.26975C9.44782 5.83508 11.6168 5.59486 13.8607 5.56278ZM34.0075 12.1389C34.0492 11.0205 34.2621 10.1728 34.5841 9.63858C35.1561 9.11533 36.2767 8.60183 37.8966 8.21508C39.5447 7.82162 41.5632 7.59304 43.6943 7.56257C47.9423 7.50184 52.4168 8.22947 55.1951 9.803C55.2106 9.84474 55.2332 9.91818 55.2555 10.0365C55.316 10.3574 55.3394 10.8309 55.311 11.4432C55.2547 12.657 55.0044 14.2356 54.6221 15.8345C54.2399 17.4326 53.7376 19.0014 53.1977 20.2007C52.9268 20.8024 52.6602 21.28 52.4137 21.6151C52.2912 21.7815 52.186 21.8958 52.1022 21.9693C52.0314 22.0314 51.9927 22.0496 51.9876 22.052V22.052C50.6363 22.5017 47.6377 22.8757 44.5351 22.9378C43.0018 22.9685 41.4842 22.922 40.1792 22.7795C38.9215 22.6422 37.9525 22.4246 37.356 22.1552C36.7881 21.6489 36.2098 20.8199 35.6897 19.7445C35.1493 18.6271 34.7041 17.3111 34.4062 15.9706C34.108 14.6286 33.9645 13.2937 34.0075 12.1389Z" fill="#212529"/>
</svg>
