<svg width="60" height="30" viewBox="0 0 60 30" fill="none" xmlns="http://www.w3.org/2000/svg">
<path fill-rule="evenodd" clip-rule="evenodd" d="M14.5 24C19.7467 24 24 19.7467 24 14.5C24 9.25329 19.7467 5 14.5 5C9.25329 5 5 9.25329 5 14.5C5 19.7467 9.25329 24 14.5 24ZM14.5 26C20.8513 26 26 20.8513 26 14.5C26 14.1964 25.9882 13.8956 25.9651 13.5979L26.114 13.7893C26.3239 13.626 26.7562 13.4282 27.4201 13.2694C28.0608 13.1162 28.8336 13.0191 29.6488 12.9997C31.3171 12.96 32.9704 13.2484 33.9856 13.8574L34.0211 13.7983C34.0071 14.0304 34 14.2644 34 14.5C34 20.8513 39.1487 26 45.5 26C51.8513 26 57 20.8513 57 14.5C57 14.3325 56.9964 14.1658 56.9893 14H60V12H56.7275C55.586 6.85081 50.9927 3 45.5 3C40.0833 3 35.5413 6.74496 34.3219 11.787C32.9182 11.1721 31.1634 10.9631 29.6013 11.0002C28.6665 11.0225 27.7518 11.1337 26.955 11.3242C26.5075 11.4312 26.0662 11.5704 25.6691 11.7501C24.4366 6.72672 19.9035 3 14.5 3C9.00728 3 4.41397 6.85081 3.2725 12H0V14H3.01067C3.00358 14.1658 3 14.3325 3 14.5C3 20.8513 8.14873 26 14.5 26ZM55 14.5C55 19.7467 50.7467 24 45.5 24C40.2533 24 36 19.7467 36 14.5C36 9.25329 40.2533 5 45.5 5C50.7467 5 55 9.25329 55 14.5Z" fill="#212529"/>
</svg>
